<svg xmlns="http://www.w3.org/2000/svg" width="1200" height="630" viewBox="0 0 1200 630" role="img" aria-labelledby="title desc">
  <title id="title">AI PickGold Codex 中文学习站分享图</title>
  <desc id="desc">蓝色基调的 AI PickGold Codex 教程站分享卡片</desc>
  <defs>
    <linearGradient id="bg" x1="0" y1="0" x2="1" y2="1">
      <stop offset="0%" stop-color="#eef7ff"/>
      <stop offset="42%" stop-color="#dbeafe"/>
      <stop offset="100%" stop-color="#0b5cff"/>
    </linearGradient>
    <linearGradient id="blue" x1="0" y1="0" x2="1" y2="1">
      <stop offset="0%" stop-color="#2563eb"/>
      <stop offset="100%" stop-color="#0f4bd8"/>
    </linearGradient>
    <filter id="shadow" x="-20%" y="-20%" width="140%" height="140%">
      <feDropShadow dx="0" dy="24" stdDeviation="22" flood-color="#0b2f80" flood-opacity="0.22"/>
    </filter>
  </defs>
  <rect width="1200" height="630" fill="url(#bg)"/>
  <path d="M0 484 C170 420 274 468 424 418 C596 360 685 230 865 232 C1017 234 1112 328 1200 292 L1200 630 L0 630 Z" fill="#0f4bd8" opacity="0.13"/>
  <path d="M80 78 H1120 V552 H80 Z" rx="42" fill="rgba(255,255,255,0.72)" stroke="rgba(15,75,216,0.16)" filter="url(#shadow)"/>
  <circle cx="972" cy="168" r="96" fill="#0b5cff" opacity="0.12"/>
  <circle cx="1036" cy="228" r="42" fill="#18a058" opacity="0.18"/>
  <g transform="translate(126 120)">
    <rect x="0" y="0" width="106" height="106" rx="30" fill="url(#blue)"/>
    <path d="M31 34 H75 V45 H31 Z M31 54 H75 V65 H31 Z M31 74 H61 V85 H31 Z" fill="#fff"/>
    <circle cx="76" cy="78" r="10" fill="#f7c948"/>
  </g>
  <text x="260" y="164" fill="#0f172a" font-family="-apple-system, BlinkMacSystemFont, 'PingFang SC', 'Microsoft YaHei', sans-serif" font-size="42" font-weight="750">AI PickGold Codex</text>
  <text x="260" y="214" fill="#2563eb" font-family="-apple-system, BlinkMacSystemFont, 'PingFang SC', 'Microsoft YaHei', sans-serif" font-size="26" font-weight="650">中文 Codex 实战学习站</text>
  <text x="126" y="328" fill="#08111f" font-family="-apple-system, BlinkMacSystemFont, 'PingFang SC', 'Microsoft YaHei', sans-serif" font-size="74" font-weight="850">把 Codex 学成</text>
  <text x="126" y="414" fill="#08111f" font-family="-apple-system, BlinkMacSystemFont, 'PingFang SC', 'Microsoft YaHei', sans-serif" font-size="74" font-weight="850">能交付的工作流</text>
  <g transform="translate(126 470)" font-family="-apple-system, BlinkMacSystemFont, 'PingFang SC', 'Microsoft YaHei', sans-serif" font-size="26" font-weight="650">
    <rect x="0" y="0" width="146" height="52" rx="18" fill="#0b5cff"/>
    <text x="28" y="35" fill="#fff">60 篇教程</text>
    <rect x="166" y="0" width="190" height="52" rx="18" fill="#e8f1ff"/>
    <text x="194" y="35" fill="#0f4bd8">AGENTS.md</text>
    <rect x="376" y="0" width="148" height="52" rx="18" fill="#ecfdf3"/>
    <text x="406" y="35" fill="#087443">Skills</text>
    <rect x="544" y="0" width="202" height="52" rx="18" fill="#fff7df"/>
    <text x="574" y="35" fill="#8a5a00">GitHub 自动化</text>
  </g>
  <g transform="translate(880 346)">
    <rect x="0" y="0" width="190" height="132" rx="28" fill="#ffffff" opacity="0.86" stroke="#cfe0ff"/>
    <path d="M48 50 C66 30 91 30 110 50 C129 70 129 96 110 116" fill="none" stroke="#0b5cff" stroke-width="14" stroke-linecap="round"/>
    <path d="M66 82 H136" stroke="#18a058" stroke-width="14" stroke-linecap="round"/>
  </g>
</svg>
